Coordinates
version=1
nRows=18
nColumns=13
inDegrees=yes

Units are S.I. units (second, meters, Newtons, ...)
If the header above contains a line with 'inDegrees', this indicates whether rotational values are in degrees (yes) or radians (no).

endheader
time	bJoint_3	seatpos	hipangle	kneeangle	footangle	lbackangle	uarmleft_out	uarmleft_trn	uarmleft_up	uarmright_out	uarmright_trn	uarmright_up
      0.00000000	     -0.00000000	     -0.65653291	     23.53873579	    145.00983364	     78.54856943	     11.44233811	     38.00877004	    -28.89793386	     -5.69232110	     37.64158131	    -26.38138685	     -2.02717197
      0.01000000	      0.00000000	     -0.64352862	     24.15578760	    143.36760408	     77.52339168	     11.44823647	     37.51017782	    -28.16895020	     -9.29698253	     37.24929599	    -25.85897547	     -5.67459278
      0.02000000	     -0.00000000	     -0.61554468	     25.56960661	    139.79351016	     75.36311677	     11.45925411	     34.34363650	    -27.75750397	    -12.04279698	     34.16002254	    -25.71322323	     -8.38684461
      0.03000000	      0.00000000	     -0.59457034	     26.69622863	    137.07820885	     73.77443748	     11.46055700	     31.54863417	    -27.02351919	    -12.86268973	     31.32911077	    -25.21819431	     -9.22513957
      0.04000000	     -0.00000000	     -0.57352812	     27.87692068	    134.32164603	     72.19856672	     11.44754610	     28.71813597	    -26.25129137	    -13.59549988	     28.64059819	    -24.71212768	     -9.94697804
      0.05000000	     -0.00000000	     -0.55231334	     29.11374019	    131.50805956	     70.62179975	     11.41537815	     25.87143306	    -25.44331627	    -14.27473893	     25.75834905	    -24.13555288	    -10.64699433
      0.06000000	     -0.00000000	     -0.53054247	     30.42794057	    128.58277338	     69.01071395	     11.45582572	     23.16440574	    -24.63476509	    -14.97520254	     22.82805635	    -23.50937520	    -11.37950778
      0.07000000	     -0.00000000	     -0.50931458	     31.75087691	    125.69103940	     67.44191632	     11.40465804	     20.27970802	    -23.82882978	    -15.51107615	     20.00389114	    -22.95022788	    -11.86800855
      0.08000000	      0.00000000	     -0.48754375	     33.14874295	    122.68202041	     65.83076336	     11.45156295	     17.54172279	    -22.97017063	    -16.10345389	     17.21094835	    -22.29983278	    -12.47740644
      0.09000000	     -0.00000000	     -0.46633677	     34.54974967	    119.70550286	     64.25525253	     11.41526707	     14.76541635	    -22.33776877	    -16.53706429	     14.49018485	    -21.85858051	    -12.86439648
      0.10000000	     -0.00000000	     -0.44531544	     35.97681071	    116.70718366	     62.68399438	     11.40007545	     11.99569660	    -21.45447368	    -16.88499080	     11.65953601	    -21.17421233	    -13.22843504
      0.11000000	      0.00000000	     -0.42357069	     37.49374527	    113.55122724	     61.04497251	     11.45823926	      9.40425637	    -20.60323054	    -17.32523128	      9.02833874	    -20.49548191	    -13.84191723
      0.12000000	     -0.00000000	     -0.40331558	     38.94514095	    110.55721920	     59.50236015	     11.39326380	      6.67631534	    -20.03439305	    -17.46757660	      6.21879768	    -20.24968350	    -14.00501516
      0.13000000	     -0.00000000	     -0.38235516	     40.48768910	    107.39873017	     57.88641927	     11.42155238	      4.21582527	    -19.22668412	    -17.70797948	      3.70264198	    -19.59926312	    -14.26251183
      0.14000000	     -0.00000000	     -0.36231604	     42.00309311	    104.31635205	     56.31944516	     11.39559883	      1.83766113	    -18.49622652	    -17.75208956	      1.27906177	    -19.01672528	    -14.31054874
      0.15000000	     -0.00000000	     -0.34229887	     43.55902054	    101.17008220	     54.72910273	     11.38619146	     -0.57789678	    -17.69989477	    -17.99490198	     -1.13247122	    -18.40714217	    -14.35275372
      0.16000000	      0.00000000	     -0.32235791	     45.15397612	     97.96210564	     53.11608176	     11.42009517	     -2.76932764	    -16.97987896	    -18.10535096	     -3.34572638	    -17.84103995	    -14.42953455
      0.17000000	     -0.00000000	     -0.30280734	     46.76481283	     94.73791784	     51.50273067	     10.59765186	     -5.86453793	    -16.48794607	    -16.81325326	     -6.23392165	    -17.55958255	    -13.12785134
